# xmcd
#
# Track frame offsets:
#	150
#	22789
#	49391
#	73445
#	105291
#	123269
#	141926
#	170122
#	192650
#	208829
#	226643
#	245569
#	260167
#
# Disc length: 4496 seconds
#
# Revision: 1
# Processed by: cddbd v1.5.2PL0 Copyright (c) Steve Scherf et al.
# Submitted via: audiograbber 1.83.01
#
DISCID=c5118e0d
DTITLE=Michael Hardie - Waiting for Perfection
DYEAR=1900
DGENRE=Blues - Roots
TTITLE0=Angel of Berlin
TTITLE1=I dreamed I met Bob Dylan
TTITLE2=Waiting for Perfection
TTITLE3=Outskirts of Town
TTITLE4=Chocolate for Breakfast
TTITLE5=What´s wrong with you
TTITLE6=I walk alone
TTITLE7=What if I fell in Love again
TTITLE8=Jesse´s Slide
TTITLE9=Simple Song of Praise
TTITLE10=Imagine
TTITLE11=Mojo Hand
TTITLE12=Milton Recalls
EXTD=
EXTT0=
EXTT1=
EXTT2=
EXTT3=
EXTT4=
EXTT5=
EXTT6=
EXTT7=
EXTT8=
EXTT9=
EXTT10=
EXTT11=
EXTT12=
PLAYORDER=
